<?xml version="1.0" encoding="UTF-8" standalone="yes"?>
<svg version="1.1" id="Capa_1" xmlns="http://www.w3.org/2000/svg" xmlns:xlink="http://www.w3.org/1999/xlink" x="0px" y="0px" viewBox="0 0 500 150" style="enable-background:new 0 0 500 150;" xml:space="preserve">
  <style type="text/css">
	.st0{display:none;}
	.st1{display:inline;fill:#61398E;}
	.st2{fill:#FFFFFF;}
	.st3{fill:#E61B49;}
</style>
  <g class="st0">
    <path class="st1" d="M49.1,77.5H25.5V26.8h22.8c10.3,0,16.5,5.1,16.5,13.2c0,6.1-3.7,10.1-8.6,11.6c5.9,1.2,9.8,6.4,9.8,12.2&#xA;&#x9;&#x9;C65.9,72.1,59.8,77.5,49.1,77.5z M45.9,36.7h-8.1v10.6h8.1c4,0,6.3-1.8,6.3-5.3C52.2,38.6,50,36.7,45.9,36.7z M46.8,56.4h-9v11.2&#xA;&#x9;&#x9;h9.1c4.1,0,6.5-1.9,6.5-5.5C53.4,58.5,50.9,56.4,46.8,56.4z"/>
    <path class="st1" d="M93.2,26.8c12.4,0,18.6,7.2,18.6,16c0,6.4-3.5,12.4-11.3,14.7l11.7,20.1h-14L87.8,58.4h-3v19.2H72.4V26.8H93.2&#xA;&#x9;&#x9;z M92.5,37.1h-7.7v12.6h7.7c4.6,0,6.8-2.4,6.8-6.4C99.3,39.5,97.1,37.1,92.5,37.1z"/>
  </g>
  <g class="st0">
    <path class="st1" d="M142.9,78c-14.4,0-26.1-10.8-26.1-26s11.7-25.9,26.1-25.9c14.5,0,25.9,10.7,25.9,25.9S157.3,78,142.9,78z&#xA;&#x9;&#x9; M142.9,66.8c8.1,0,13.4-5.9,13.4-14.7c0-9-5.3-14.7-13.4-14.7c-8.2,0-13.4,5.7-13.4,14.7C129.5,60.9,134.7,66.8,142.9,66.8z"/>
  </g>
  <g class="st0">
    <path class="st1" d="M206.7,68.6h-18.9l-3,9h-12.9l18.4-50.7h14.3l18.4,50.7h-13.1L206.7,68.6z M197.2,40.5L191,59h12.5L197.2,40.5&#xA;&#x9;&#x9;z"/>
  </g>
  <g class="st0">
    <path class="st1" d="M273.2,52.2c0,15-10.4,25.4-26.6,25.4h-19V26.8h19C262.8,26.8,273.2,37.1,273.2,52.2z M245.8,66.8&#xA;&#x9;&#x9;c9.3,0,14.8-5.3,14.8-14.7s-5.5-14.8-14.8-14.8H240v29.5H245.8z"/>
  </g>
  <g class="st0">
    <path class="st1" d="M302.9,26.2C315,26.2,324.1,33,327,44h-13.6c-2.1-4.3-5.9-6.5-10.6-6.5c-7.6,0-12.8,5.6-12.8,14.6&#xA;&#x9;&#x9;s5.2,14.6,12.8,14.6c4.7,0,8.5-2.2,10.6-6.5H327c-2.9,11-12,17.7-24.1,17.7c-15,0-25.5-10.6-25.5-25.8S288,26.2,302.9,26.2z"/>
  </g>
  <g class="st0">
    <path class="st1" d="M365.5,68.6h-18.9l-3,9h-12.9l18.4-50.7h14.3l18.4,50.7h-13.1L365.5,68.6z M356,40.5L349.8,59h12.5L356,40.5z"/>
  </g>
  <g class="st0">
    <path class="st1" d="M404.9,78c-10.9,0-19.4-5.4-19.8-15.7h13.2c0.4,3.9,2.8,5.8,6.3,5.8c3.6,0,5.9-1.8,5.9-4.8&#xA;&#x9;&#x9;c0-9.4-25.4-4.3-25.2-22.3c0-9.6,7.9-15,18.5-15c11.1,0,18.5,5.5,19,15.2h-13.4c-0.2-3.3-2.5-5.2-5.9-5.3c-3-0.1-5.2,1.4-5.2,4.6&#xA;&#x9;&#x9;c0,8.8,25.1,4.8,25.1,21.8C423.4,71,416.8,78,404.9,78z"/>
  </g>
  <g class="st0">
    <path class="st1" d="M427.5,26.8h39.2v9.9h-13.4v40.8H441V36.7h-13.4V26.8z"/>
  </g>
  <g>
    <path class="st2" d="M49.1,77.5H25.5V26.8h22.8c10.3,0,16.5,5.1,16.5,13.2c0,6.1-3.7,10.1-8.6,11.6c5.9,1.2,9.8,6.4,9.8,12.2&#xA;&#x9;&#x9;C65.9,72.1,59.8,77.5,49.1,77.5z M45.9,36.7h-8.1v10.6h8.1c4,0,6.3-1.8,6.3-5.3C52.2,38.6,50,36.7,45.9,36.7z M46.8,56.4h-9v11.2&#xA;&#x9;&#x9;h9.1c4.1,0,6.5-1.9,6.5-5.5C53.4,58.5,50.9,56.4,46.8,56.4z"/>
    <path class="st2" d="M93.2,26.8c12.4,0,18.6,7.2,18.6,16c0,6.4-3.5,12.4-11.3,14.7l11.7,20.1h-14L87.8,58.4h-3v19.2H72.4V26.8H93.2&#xA;&#x9;&#x9;z M92.5,37.1h-7.7v12.6h7.7c4.6,0,6.8-2.4,6.8-6.4C99.3,39.5,97.1,37.1,92.5,37.1z"/>
  </g>
  <g>
    <path class="st2" d="M142.9,78c-14.4,0-26.1-10.8-26.1-26s11.7-25.9,26.1-25.9c14.5,0,25.9,10.7,25.9,25.9S157.3,78,142.9,78z&#xA;&#x9;&#x9; M142.9,66.8c8.1,0,13.4-5.9,13.4-14.7c0-9-5.3-14.7-13.4-14.7c-8.2,0-13.4,5.7-13.4,14.7C129.5,60.9,134.7,66.8,142.9,66.8z"/>
  </g>
  <g>
    <path class="st2" d="M206.7,68.6h-18.9l-3,9h-12.9l18.4-50.7h14.3l18.4,50.7h-13.1L206.7,68.6z M197.2,40.5L191,59h12.5L197.2,40.5&#xA;&#x9;&#x9;z"/>
  </g>
  <g>
    <path class="st2" d="M273.2,52.2c0,15-10.4,25.4-26.6,25.4h-19V26.8h19C262.8,26.8,273.2,37.1,273.2,52.2z M245.8,66.8&#xA;&#x9;&#x9;c9.3,0,14.8-5.3,14.8-14.7s-5.5-14.8-14.8-14.8H240v29.5H245.8z"/>
  </g>
  <g>
    <path class="st2" d="M302.9,26.2C315,26.2,324.1,33,327,44h-13.6c-2.1-4.3-5.9-6.5-10.6-6.5c-7.6,0-12.8,5.6-12.8,14.6&#xA;&#x9;&#x9;s5.2,14.6,12.8,14.6c4.7,0,8.5-2.2,10.6-6.5H327c-2.9,11-12,17.7-24.1,17.7c-15,0-25.5-10.6-25.5-25.8S288,26.2,302.9,26.2z"/>
  </g>
  <g>
    <path class="st2" d="M365.5,68.6h-18.9l-3,9h-12.9l18.4-50.7h14.3l18.4,50.7h-13.1L365.5,68.6z M356,40.5L349.8,59h12.5L356,40.5z"/>
  </g>
  <g>
    <path class="st2" d="M404.9,78c-10.9,0-19.4-5.4-19.8-15.7h13.2c0.4,3.9,2.8,5.8,6.3,5.8c3.6,0,5.9-1.8,5.9-4.8&#xA;&#x9;&#x9;c0-9.4-25.4-4.3-25.2-22.3c0-9.6,7.9-15,18.5-15c11.1,0,18.5,5.5,19,15.2h-13.4c-0.2-3.3-2.5-5.2-5.9-5.3c-3-0.1-5.2,1.4-5.2,4.6&#xA;&#x9;&#x9;c0,8.8,25.1,4.8,25.1,21.8C423.4,71,416.8,78,404.9,78z"/>
  </g>
  <g>
    <path class="st2" d="M427.5,26.8h39.2v9.9h-13.4v40.8H441V36.7h-13.4V26.8z"/>
  </g>
  <g>
    <path class="st3" d="M22.7,84.6H62v9.9H48.5v40.8H36.2V94.5H22.7V84.6z"/>
  </g>
  <g>
    <path class="st3" d="M98.7,94.5H80v10.3h16.6v9.5H80v11.1h18.7v9.9H67.6V84.6h31.1V94.5z"/>
  </g>
  <g>
    <path class="st3" d="M137.6,126.4h-18.9l-3,9h-12.9L121,84.6h14.3l18.4,50.7h-13.1L137.6,126.4z M128.1,98.3l-6.2,18.6h12.5&#xA;&#x9;&#x9;L128.1,98.3z"/>
  </g>
  <g>
    <path class="st3" d="M158.5,84.6h14.6l14.2,35.1l14.1-35.1H216v50.7h-12.4v-30.4l-11.3,30.4h-10l-11.4-30.5v30.5h-12.4V84.6z"/>
  </g>
  <g>
</g>
  <g>
</g>
  <g>
</g>
  <g>
</g>
  <g>
</g>
  <g>
</g>
</svg>